<svg xmlns="http://www.w3.org/2000/svg" viewBox="0 0 48 48" width="48" height="48"><line x1="33" y1="28" x2="44.5" y2="28.5" stroke="#888" stroke-width="5" stroke-linecap="round"/><circle cx="45.5" cy="28.6" r="2.7" fill="#888"/><path d="M7 27 Q8 36 14 38 H26 Q32 36 33 27 Z" fill="#1c1c1c" stroke="#888" stroke-width="2.3"/><ellipse cx="20" cy="27" rx="13" ry="4.2" fill="#1c1c1c" stroke="#888" stroke-width="2.3"/><path d="M8 27 Q20 5 32 27 Z" fill="#c98a4b"/><circle cx="14.5" cy="20" r="1.5" fill="#a86f38"/><circle cx="27" cy="22.5" r="1.5" fill="#a86f38"/><circle cx="12.5" cy="24" r="1.4" fill="#a86f38"/><circle cx="17.5" cy="14.5" r="1.3" fill="#2a1c0e"/><g transform="rotate(18 23.5 18)"><path d="M23.5 11.1 C29.648 15.102 29.648 20.898 23.5 24.9 C17.352 20.898 17.352 15.102 23.5 11.1 Z" fill="#2a1c0e"/><path d="M23.5 12.4 C26.786 15.792 20.214 20.208 23.5 23.599999999999998" fill="none" stroke="#c98a4b" stroke-width="1.70" stroke-linecap="round"/><path d="M21.274 14.895 Q18.458640000000003 18 21.274 21.105" fill="none" stroke="rgba(255,255,255,.16)" stroke-width="0.9" stroke-linecap="round"/></g></svg>
