<svg xmlns="http://www.w3.org/2000/svg" viewBox="0 0 210 64" width="210" height="64"><g transform="translate(0 4) scale(1.1667)"><line x1="33" y1="28" x2="44.5" y2="28.5" stroke="#888" stroke-width="4.5" stroke-linecap="round"/><circle cx="45.5" cy="28.6" r="2.4" fill="#888"/><path d="M7 27 Q8 36 14 38 H26 Q32 36 33 27 Z" fill="#1c1c1c" stroke="#888" stroke-width="2"/><ellipse cx="20" cy="27" rx="13" ry="4.2" fill="#1c1c1c" stroke="#888" stroke-width="2"/><path d="M8 27 Q20 5 32 27 Z" fill="#c98a4b"/><circle cx="19.87" cy="28.99" r="0.99" fill="#a86f38"/><circle cx="23.48" cy="27.19" r="0.65" fill="#a86f38"/><circle cx="24.70" cy="21.37" r="0.70" fill="#a86f38"/><circle cx="26.13" cy="19.06" r="0.95" fill="#a86f38"/><circle cx="14.91" cy="14.43" r="0.70" fill="#a86f38"/><circle cx="12.61" cy="15.39" r="1.01" fill="#a86f38"/><circle cx="19.62" cy="20.70" r="0.97" fill="#a86f38"/><circle cx="12.72" cy="15.94" r="0.60" fill="#a86f38"/><circle cx="22.96" cy="16.62" r="0.81" fill="#a86f38"/><circle cx="27.87" cy="23.47" r="0.74" fill="#a86f38"/><circle cx="14.05" cy="22.97" r="0.98" fill="#a86f38"/><circle cx="20.39" cy="25.25" r="0.75" fill="#a86f38"/><circle cx="18.71" cy="13.58" r="0.95" fill="#a86f38"/><circle cx="15.21" cy="19.22" r="0.81" fill="#a86f38"/><circle cx="11.87" cy="19.48" r="0.96" fill="#a86f38"/><circle cx="24.44" cy="24.51" r="0.97" fill="#a86f38"/><circle cx="18.03" cy="20.94" r="0.51" fill="#a86f38"/><circle cx="11.20" cy="25.13" r="0.77" fill="#a86f38"/><circle cx="13.03" cy="19.59" r="1.04" fill="#a86f38"/><circle cx="14.53" cy="16.66" r="1.02" fill="#a86f38"/><circle cx="16.62" cy="14.54" r="0.57" fill="#a86f38"/><circle cx="24.19" cy="14.70" r="0.64" fill="#a86f38"/><circle cx="24.17" cy="22.72" r="1.02" fill="#a86f38"/><circle cx="15.40" cy="16.98" r="1.05" fill="#a86f38"/><circle cx="20.75" cy="14.94" r="0.69" fill="#a86f38"/><circle cx="21.13" cy="21.94" r="0.69" fill="#a86f38"/><circle cx="21.87" cy="28.31" r="0.57" fill="#a86f38"/><circle cx="19.40" cy="14.97" r="0.62" fill="#a86f38"/><circle cx="24.82" cy="21.27" r="0.70" fill="#a86f38"/><circle cx="20.73" cy="19.40" r="0.67" fill="#a86f38"/><circle cx="25.28" cy="15.63" r="0.70" fill="#a86f38"/><circle cx="20.00" cy="26.79" r="0.98" fill="#a86f38"/><circle cx="22.83" cy="18.00" r="0.68" fill="#a86f38"/><circle cx="11.44" cy="24.93" r="1.03" fill="#a86f38"/><circle cx="12.16" cy="23.80" r="0.68" fill="#a86f38"/><circle cx="18.54" cy="17.53" r="0.51" fill="#a86f38"/><circle cx="21.59" cy="23.60" r="0.56" fill="#a86f38"/><circle cx="16.33" cy="16.24" r="0.74" fill="#a86f38"/><circle cx="14.70" cy="14.28" r="1.04" fill="#a86f38"/><circle cx="10.94" cy="18.39" r="0.55" fill="#a86f38"/><circle cx="11.68" cy="22.14" r="0.73" fill="#a86f38"/><circle cx="24.47" cy="18.33" r="0.55" fill="#a86f38"/><circle cx="27.13" cy="22.32" r="0.51" fill="#a86f38"/><circle cx="20.11" cy="25.06" r="0.90" fill="#a86f38"/><circle cx="12.41" cy="19.44" r="0.91" fill="#a86f38"/><circle cx="18.95" cy="13.13" r="0.58" fill="#a86f38"/><circle cx="19.95" cy="24.11" r="0.56" fill="#a86f38"/><circle cx="20.14" cy="17.54" r="0.85" fill="#a86f38"/><circle cx="17.20" cy="26.64" r="0.99" fill="#a86f38"/><circle cx="22.88" cy="18.36" r="0.83" fill="#a86f38"/><circle cx="23.55" cy="20.09" r="0.68" fill="#a86f38"/><circle cx="12.93" cy="26.86" r="0.60" fill="#a86f38"/><circle cx="24.96" cy="19.99" r="0.53" fill="#a86f38"/><circle cx="25.78" cy="20.60" r="0.80" fill="#a86f38"/><circle cx="20.30" cy="20.39" r="0.90" fill="rgba(42,28,14,.5)"/><circle cx="21.04" cy="17.15" r="0.69" fill="rgba(42,28,14,.5)"/><circle cx="25.61" cy="14.43" r="0.57" fill="rgba(42,28,14,.5)"/><circle cx="16.84" cy="20.77" r="0.85" fill="rgba(42,28,14,.5)"/><circle cx="18.43" cy="19.05" r="1.04" fill="rgba(42,28,14,.5)"/><circle cx="14.02" cy="13.56" r="0.78" fill="rgba(42,28,14,.5)"/><circle cx="19.67" cy="18.69" r="0.78" fill="rgba(42,28,14,.5)"/><circle cx="21.70" cy="14.30" r="0.60" fill="rgba(42,28,14,.5)"/><circle cx="19.26" cy="15.85" r="0.93" fill="rgba(42,28,14,.5)"/><circle cx="13.16" cy="12.75" r="0.59" fill="rgba(42,28,14,.5)"/><circle cx="21.56" cy="15.86" r="0.99" fill="rgba(42,28,14,.5)"/><circle cx="19.80" cy="18.57" r="0.84" fill="rgba(42,28,14,.5)"/><circle cx="19.77" cy="9.98" r="0.86" fill="rgba(42,28,14,.5)"/><circle cx="13.21" cy="17.07" r="0.86" fill="rgba(42,28,14,.5)"/><circle cx="21.24" cy="14.93" r="1.01" fill="rgba(42,28,14,.5)"/><circle cx="22.32" cy="18.70" r="0.54" fill="rgba(42,28,14,.5)"/><circle cx="21.39" cy="17.96" r="0.85" fill="rgba(42,28,14,.5)"/><circle cx="16.89" cy="20.14" r="0.84" fill="rgba(42,28,14,.5)"/><circle cx="15.62" cy="21.28" r="1.03" fill="rgba(42,28,14,.5)"/><circle cx="20.37" cy="15.37" r="0.98" fill="rgba(42,28,14,.5)"/><circle cx="17.60" cy="15.03" r="0.58" fill="rgba(42,28,14,.5)"/><circle cx="13.44" cy="16.84" r="0.96" fill="rgba(42,28,14,.5)"/><circle cx="19.18" cy="10.29" r="0.65" fill="rgba(42,28,14,.5)"/><circle cx="23.60" cy="12.16" r="0.81" fill="rgba(42,28,14,.5)"/><g transform="rotate(18 23 18)"><path d="M23 11.4 C28.8 15.228 28.8 20.772 23 24.6 C17.2 20.772 17.2 15.228 23 11.4 Z" fill="#2a1c0e"/><path d="M23 12.700000000000001 C26.1 15.888 19.9 20.112000000000002 23 23.3" fill="none" stroke="#c98a4b" stroke-width="1.60" stroke-linecap="round"/><path d="M20.9 15.030000000000001 Q18.244 18 20.9 20.97" fill="none" stroke="rgba(255,255,255,.16)" stroke-width="0.9" stroke-linecap="round"/></g></g><text x="64" y="42" font-family="-apple-system, BlinkMacSystemFont, 'Segoe UI', Roboto, Helvetica, Arial, sans-serif" font-size="30" font-weight="600" fill="#ededed">OverDose</text></svg>
